<svg width="100" height="100" viewBox="0 0 100 100" fill="none" xmlns="http://www.w3.org/2000/svg">
<path d="M8.55257 0.0011505C8.28341 0.0172644 8.06868 0.233988 8.05397 0.506555C7.81192 4.48899 8.38693 8.51493 9.72073 12.2688C10.9956 15.8565 12.9013 19.137 14.6736 22.4124C16.4432 25.6828 18.0632 29.0321 19.5791 32.437L32.6061 61.7068C31.5872 61.7349 30.5739 61.6665 29.592 61.4437C26.7771 60.8007 24.2403 58.9005 22.8096 56.3604L22.8076 56.3584C22.7996 56.3423 22.7877 56.3262 22.7757 56.3084L22.7717 56.3044C22.7597 56.2883 22.7478 56.2722 22.7358 56.2585L22.7338 56.2565C22.7219 56.2444 22.7059 56.2283 22.6904 56.2162C22.6893 56.2155 22.6864 56.2151 22.6864 56.2142C22.6704 56.2021 22.6545 56.19 22.6349 56.1779C22.5991 56.1537 22.5628 56.1376 22.5237 56.1239C22.5197 56.1219 22.5117 56.1199 22.5077 56.1159C22.4675 56.1038 22.426 56.0957 22.3841 56.0917C22.3642 56.0906 22.3414 56.0906 22.3203 56.0917C22.3004 56.0927 22.2804 56.0957 22.2625 56.0998C22.2614 56.0997 22.2585 56.0997 22.2585 56.0998C22.2565 56.1004 22.2545 56.1008 22.2505 56.1018C22.2306 56.1058 22.2146 56.1098 22.1951 56.1179C22.1792 56.1219 22.1632 56.13 22.1497 56.134C22.1377 56.138 22.1257 56.1461 22.1138 56.1501C22.1058 56.1542 22.0978 56.1582 22.0858 56.1662C22.0819 56.1703 22.0739 56.1743 22.0699 56.1783C22.0579 56.1864 22.046 56.1944 22.034 56.2025L22.03 56.2065C22.0141 56.2186 21.9981 56.2347 21.9826 56.2484L21.9786 56.2524C21.9666 56.2645 21.9547 56.2766 21.9427 56.2887C21.942 56.2898 21.9416 56.2927 21.9407 56.2927C21.9287 56.3089 21.9168 56.3249 21.9048 56.3407C21.9041 56.3417 21.9038 56.3447 21.9028 56.3447C21.8909 56.3608 21.8829 56.3769 21.8749 56.3947C21.8742 56.3967 21.8739 56.3987 21.8729 56.4027C21.849 56.4535 21.833 56.5079 21.8255 56.5635C21.8247 56.5675 21.8244 56.5755 21.8235 56.5796C21.4009 58.0582 21.3579 59.6441 21.7142 61.1408C22.0791 62.672 22.8536 64.0968 23.9331 65.23C25.3782 66.7468 27.2743 67.6639 29.1806 68.2917C31.3939 69.0205 33.715 69.3917 36.0392 69.4194L49.4948 99.6519C49.5067 99.6801 49.5187 99.7043 49.5307 99.7293C49.5346 99.7373 49.5426 99.7454 49.5466 99.7534C49.5546 99.7615 49.5586 99.7736 49.5665 99.7816C49.5705 99.7897 49.5745 99.7937 49.5825 99.8018C49.5905 99.8098 49.5984 99.8219 49.6104 99.83C49.6184 99.838 49.6224 99.8421 49.6303 99.8501C49.6383 99.8582 49.6463 99.8622 49.6543 99.8703C49.6583 99.8723 49.6583 99.8743 49.6622 99.8783C49.6742 99.8904 49.6902 99.8985 49.7037 99.9105C49.7237 99.9226 49.7436 99.9307 49.7615 99.9428C49.7635 99.9438 49.7655 99.9468 49.7695 99.9468C49.7715 99.9475 49.7735 99.9478 49.7775 99.9488C49.7934 99.9569 49.8134 99.9649 49.8309 99.969H49.8329C49.834 99.9696 49.8369 99.97 49.8369 99.971C49.8529 99.975 49.8728 99.9831 49.8903 99.9871C49.9063 99.9911 49.9183 99.9911 49.9334 99.9951C49.9414 99.996 49.9454 99.9962 49.9533 99.9971C49.9773 99.9992 49.9972 100.001 50.0191 99.9992C50.0202 99.9992 50.0231 99.9992 50.0231 99.9992C50.0431 99.9981 50.059 99.9952 50.0786 99.9911C50.1196 99.9831 50.1599 99.971 50.1982 99.9549C50.2002 99.9542 50.2022 99.9538 50.2062 99.9529C50.2069 99.9521 50.2072 99.9518 50.2081 99.9508C50.2281 99.9428 50.2516 99.9307 50.2719 99.9186C50.2879 99.9105 50.2999 99.8985 50.3154 99.8904L50.3174 99.8884C50.3194 99.8873 50.3214 99.8844 50.3254 99.8844C50.3573 99.8602 50.3832 99.8332 50.4079 99.8026C50.4099 99.7986 50.4119 99.7985 50.4159 99.7945C50.4279 99.7784 50.4358 99.7663 50.4478 99.7506C50.4498 99.7466 50.4518 99.7466 50.4558 99.7426C50.4637 99.7265 50.4717 99.7143 50.4797 99.6966C50.4808 99.6926 50.4837 99.6886 50.4837 99.6845C50.4844 99.6835 50.4848 99.6805 50.4857 99.6805L66.393 63.9491C70.6724 64.5447 74.8138 66.1867 78.3219 68.74C78.3258 68.742 78.3298 68.7441 78.3338 68.7481C78.3498 68.7602 78.3657 68.7682 78.3793 68.7763C78.3992 68.7884 78.4211 68.7964 78.4431 68.8045C78.463 68.8125 78.4829 68.8206 78.5029 68.8246C78.5148 68.8266 78.5228 68.8286 78.5348 68.8327C78.5467 68.8347 78.5547 68.8367 78.5667 68.8407C78.5866 68.8447 78.6094 68.8447 78.6305 68.8447C78.6316 68.8448 78.6345 68.8448 78.6345 68.8447C78.6356 68.8448 78.6385 68.8448 78.6385 68.8447C78.6787 68.8445 78.719 68.8407 78.7581 68.8286C78.7621 68.8276 78.7661 68.8246 78.774 68.8246C78.79 68.8206 78.802 68.8166 78.8155 68.8125C78.8166 68.8118 78.8195 68.8114 78.8195 68.8105C78.8354 68.8024 78.8514 68.7984 78.867 68.7904C78.8689 68.7897 78.8709 68.7893 78.8749 68.7883C78.8789 68.7843 78.8869 68.7843 78.8909 68.7803C78.9028 68.7722 78.9188 68.7642 78.9307 68.7561C78.9467 68.744 78.9627 68.732 78.9802 68.7199C78.9962 68.7078 79.0121 68.6917 79.0276 68.6759C79.0396 68.6639 79.0516 68.6477 79.0595 68.6345L79.0675 68.6264C79.0686 68.6244 79.0715 68.6224 79.0715 68.6184C79.0735 68.6143 79.0755 68.6143 79.0795 68.6103C79.0875 68.5942 79.0994 68.5821 79.1074 68.5644C79.1732 68.4463 79.1923 68.3077 79.1608 68.176C78.3582 65.039 76.7189 62.1316 74.4573 59.841C73.086 58.4521 71.488 57.3002 69.7537 56.4243L80.4287 32.4369C81.9445 29.032 83.5646 25.6827 85.3342 22.4123C87.1065 19.1369 89.0122 15.8564 90.287 12.2687C91.6209 8.51484 92.1875 4.48893 91.9456 0.506493C91.9296 0.209594 91.678 -0.0174727 91.3852 0.00105829C91.1695 0.0171722 90.984 0.161813 90.9175 0.370891C89.819 2.64283 88.7723 4.94337 87.7941 7.27115C86.9731 9.2248 86.2017 11.1782 85.2085 12.9872C83.0542 16.9113 79.8146 20.2268 77.3445 24.1647C75.9203 26.435 74.8024 28.8383 73.5207 31.1109C72.2395 33.3824 70.7697 35.5511 68.8336 37.1716C67.0822 38.6374 64.9563 39.6453 62.729 40.1873C60.5004 40.7296 58.1672 40.8192 55.8683 40.5736C52.8767 40.2538 49.9421 39.3726 47.0545 38.3557C43.523 37.112 39.9663 35.6313 36.1516 35.1207C34.36 34.881 32.6076 34.8564 31.0298 34.3375C29.7024 33.901 28.4761 33.1101 27.4244 32.1363C26.3716 31.1614 25.4802 30.0046 24.6904 28.7655C23.1102 26.2865 21.9378 23.4853 20.3061 20.8962C18.5538 18.1156 16.3659 15.7157 14.8176 12.9788C13.8051 11.1891 13.0448 9.23009 12.232 7.27112C11.2569 4.92118 10.214 2.60642 9.09624 0.322791C9.01688 0.136675 8.84063 0.0121844 8.64094 0.00090462C8.621 -0.000142785 8.59947 -0.000142785 8.57913 0.00090462L8.55257 0.0011505ZM37.2623 45.9953C37.7417 46.0074 38.2213 46.0384 38.6962 46.1142C41.873 46.6224 44.8767 48.1648 48.1179 49.1696C52.73 50.5994 57.681 50.6966 62.3996 49.6917L60.0117 54.4868C59.6676 54.5029 59.3233 54.507 58.9796 54.5368C56.5618 54.7402 54.1581 55.2626 51.8469 55.9256C48.5785 56.8633 45.4168 58.07 42.2543 59.2295L35.8222 46.0117C36.3029 45.9956 36.7829 45.9835 37.2623 45.9956V45.9953ZM54.927 64.6953L49.8629 74.864L46.2554 67.45C47.9267 66.8801 49.5797 66.272 51.233 65.7375C52.4515 65.3435 53.6845 64.9954 54.927 64.6953V64.6953Z" fill="black"/>
</svg>
