<svg width="100" height="100" viewBox="0 0 100 100" fill="none" xmlns="http://www.w3.org/2000/svg">
<path d="M35.6673 0C33.4154 0.000121783 31.5901 1.82457 31.5912 4.07431V16.2026H12.0783C9.82631 16.2016 8.00016 18.0251 8 20.2748C7.99898 22.5255 9.82549 24.3502 12.0783 24.3492H31.5912V95.9257C31.5901 98.1754 33.4154 99.9998 35.6673 100C37.9193 99.9998 39.7445 98.1754 39.7435 95.9257V53.1326C39.8397 50.1025 40.6154 46.8631 42.1178 44.7272C43.3788 42.9849 45.1329 41.5644 47.0702 40.7265C48.2603 40.2118 49.2861 40.09 49.8151 40.2172C50.2207 40.3151 50.7183 40.6897 50.9231 41.0527C51.1281 41.4156 51.1261 41.8509 51.058 42.4353C49.7096 54.0075 48.5473 65.6424 47.3316 77.2418L56.3054 64.6906C59.9533 59.5917 63.6144 54.503 67.2847 49.4202C68.7009 47.459 69.9293 45.9237 71.1292 45.1565C71.7089 44.7858 72.2955 44.5902 72.7385 44.544C73.152 44.5026 73.535 44.6094 73.6844 44.702H73.6925C73.8328 44.7892 74.0738 45.0434 74.2192 45.3859C74.3733 45.7508 74.4675 46.2891 74.434 46.8969C74.3651 48.1455 73.7313 49.7569 72.7614 51.6237C69.4505 57.9971 64.9634 63.949 60.3329 70.0276C59.004 71.772 57.5129 73.69 56.2799 76.0255C55.0367 78.38 54.0728 81.1629 54.108 84.2583C54.1325 86.5079 54.7017 88.7297 55.8101 90.7318C56.9205 92.7375 58.5264 94.4453 60.5246 95.6479C64.1003 97.7999 68.2472 98.0036 71.902 97.0327C77.149 95.6387 80.8972 92.1691 83.9724 89.126C85.6518 87.4643 87.4076 85.6375 88.9628 83.4544C90.5246 81.2619 91.8692 78.7068 92.4998 75.7708C92.9507 73.6703 93.0577 71.2682 92.251 68.8344C91.8462 67.6134 91.22 66.4284 90.3172 65.3682C89.4096 64.3022 88.255 63.4007 86.8688 62.8133C84.5447 61.8284 81.9908 61.866 79.696 62.9164C77.4012 63.9673 75.6971 65.8854 74.9268 68.2872C74.2387 70.4287 75.4185 72.7221 77.5621 73.4095C79.7082 74.0963 82.0049 72.9133 82.6895 70.7684C82.7335 70.6304 82.9557 70.3827 83.0878 70.3223C83.2199 70.2622 83.5525 70.2573 83.686 70.3141C83.7925 70.3592 83.9645 70.4724 84.1074 70.6405C84.2554 70.8138 84.4091 71.0794 84.5139 71.3961C84.7263 72.0374 84.7577 72.9957 84.5302 74.0625C84.2004 75.5988 83.4176 77.2044 82.3246 78.7386C81.2251 80.2822 79.8073 81.7799 78.2337 83.337C75.3949 86.1461 72.6071 88.4233 69.8097 89.1665C67.9851 89.6513 66.018 89.4365 64.7371 88.6657C64.0173 88.2324 63.372 87.5651 62.9466 86.7969C62.5192 86.0249 62.2723 85.0844 62.2619 84.1641C62.2456 82.876 62.6923 81.3517 63.4964 79.8288C64.3106 78.2868 65.4961 76.7051 66.8247 74.9611C71.4606 68.8755 76.2637 62.571 80.0011 55.3765C81.1131 53.2359 82.3913 50.6116 82.5711 47.352C82.662 45.7058 82.4602 43.9449 81.7369 42.2296C81.0041 40.492 79.7803 38.8969 78.002 37.7912C76.0829 36.5978 73.9377 36.2366 71.9268 36.438C69.9465 36.6365 68.2052 37.3612 66.7363 38.3005C63.8318 40.1577 62.1127 42.6691 60.6778 44.6561C60.0006 45.594 59.3236 46.5335 58.6471 47.472L58.9802 44.3342C59.6103 41.869 59.2872 39.2944 58.026 37.0588C56.6677 34.6514 54.4102 32.9495 51.7211 32.3026C48.7072 31.5777 45.984 32.3189 43.8299 33.2497C42.3671 33.8824 41.0023 34.6955 39.7454 35.6446V24.3497H61.0847C63.3366 24.3496 65.1619 22.5251 65.1608 20.2754C65.1607 18.0264 63.3358 16.2033 61.0847 16.2032H39.7449V4.07484C39.746 1.82509 37.9208 0.000648292 35.6688 0.000526509L35.6673 0Z" fill="black"/>
</svg>
