<svg width="100" height="100" viewBox="0 0 100 100" fill="none" xmlns="http://www.w3.org/2000/svg">
<g clip-path="url(#clip0)">
<path d="M49.4575 8.37195C48.1914 15.6981 47.2618 23.0825 46.6657 30.4939C44.5291 30.5948 42.4477 30.8175 40.4304 31.1429L32.2498 15.2128L33.4179 32.7885C31.8379 33.2877 30.3236 33.8632 28.8821 34.507L20.9506 27.3251L23.2392 37.6543C18.1297 41.1943 14.4922 46.0503 14.0306 51.7317C9.05915 52.2691 4.09765 52.9077 -0.844116 53.6721C4.15531 54.392 9.17157 54.9926 14.1972 55.4965C14.7772 58.9085 16.5083 61.9953 18.9904 64.6436L9.40068 79.1697L24.668 69.2097C26.7187 70.4245 29.0235 71.5353 30.9347 72.2742L28.765 82.0719L37.4241 74.2311L37.373 74.2024C40.7691 74.9101 44.0185 75.2656 47.1921 75.4674C47.7645 80.9954 48.5111 86.5057 49.4575 91.9818C49.4991 91.7576 49.5354 91.5324 49.5763 91.308C49.6186 91.5398 49.6553 91.7731 49.6984 92.005C50.6452 86.5261 51.3929 81.0131 51.9655 75.4822C55.3795 75.3523 58.6617 74.9221 61.7565 74.2306L70.3909 82.0499L68.2311 72.2952C70.5449 71.367 72.642 70.3334 74.5241 69.2109L89.7552 79.1476L80.1836 64.6497C82.668 61.9931 84.3981 58.8959 84.9686 55.4728C89.9909 54.9691 95.0039 54.3695 100 53.65C95.0561 52.8853 90.0923 52.2472 85.1187 51.7096C84.6407 46.0452 81.0084 41.2011 75.9085 37.6703L78.2053 27.303L70.2408 34.5164C68.8087 33.8774 67.3049 33.3073 65.7363 32.8118L66.9061 15.1898L58.704 31.1595C56.6508 30.8737 54.4398 30.6261 52.4902 30.5138C51.8941 23.1036 50.9643 15.7203 49.6984 8.39523C49.656 8.62324 49.6212 8.85257 49.5796 9.08065C49.5366 8.84497 49.5012 8.60756 49.4575 8.37195ZM52.9621 37.8993C59.7268 38.3828 65.7341 40.2198 70.0477 42.7799C74.1427 45.2102 76.5363 48.0695 77.2962 50.9469C68.9248 50.3396 60.4864 49.8988 53.2888 49.8079C53.2824 45.8361 53.1752 41.8652 52.9621 37.8993ZM46.1922 37.9216C46.182 38.1235 46.1788 38.3257 46.1692 38.5276C45.9774 42.2866 45.8737 46.0496 45.8672 49.8137C42.965 49.8495 40.0639 49.9389 37.1635 50.0519C32.0562 50.2432 26.953 50.541 21.8599 50.9691C22.6197 48.0917 25.0133 45.2324 29.1083 42.8021C33.4216 40.2423 39.4281 38.4054 46.1922 37.9216ZM76.8705 56.2026C75.8188 58.6608 73.5602 61.0632 70.0477 63.1478C65.6638 65.7496 59.532 67.6086 52.6321 68.0549C52.8782 64.2776 53.0776 60.7533 53.1881 57.244C55.8811 57.212 58.5734 57.1408 61.2648 57.0485C66.4718 56.8786 71.6758 56.6032 76.8705 56.2026ZM22.2855 56.2249C30.5547 56.7784 38.8531 57.1676 45.9678 57.2498C46.0977 60.9472 46.2735 64.5516 46.5272 68.0723C46.2465 68.0563 45.9754 68.0225 45.6972 68.0011C39.1382 67.4641 33.3146 65.6665 29.1082 63.1701C25.5957 61.0855 23.3371 58.6831 22.2855 56.2249Z" fill="black"/>
</g>
<defs>
<clipPath id="clip0">
<rect width="100" height="100" fill="white"/>
</clipPath>
</defs>
</svg>
