<svg width="100" height="100" viewBox="0 0 100 100" fill="none" xmlns="http://www.w3.org/2000/svg">
<path d="M48.7891 27.016C37.6245 27.3392 26.5832 31.5374 18.0025 38.5997C10.5953 44.6961 3.84317 51.3307 0 58.8637C4.17846 55.5265 8.53718 52.0851 13.0437 48.9407C14.431 50.6007 15.9156 52.1797 17.4967 53.6579L16.6789 62.0913L22.786 57.9921C22.8914 58.0679 22.9935 58.1473 23.0996 58.2221C24.671 59.3319 26.3133 60.3511 28.0112 61.2633L28.3332 68.1635L32.0393 63.1626C33.9746 63.9432 35.9713 64.5643 38.0182 64.9863L38.8545 71.334L42.107 65.5572C43.6608 65.6823 45.2226 65.7134 46.7826 65.6447L49.2139 73L51.7752 65.1207C51.8205 65.1143 51.8665 65.1078 51.9119 65.1013C53.5631 64.8256 55.1995 64.4494 56.81 63.9863L60.1131 70.7975L61.7655 62.2062C62.7603 61.7762 63.7402 61.3139 64.6942 60.8024L68.638 65.37L69.1084 58.0164C70.7456 56.8052 72.2738 55.4612 73.7284 54.0364L78.9435 58.7066V48.394C79.3806 47.8901 79.8117 47.3812 80.2452 46.8742C81.0104 47.3532 81.786 47.821 82.5905 48.2479C85.3521 49.7133 88.5439 50.7528 91.7157 50.2278C93.9528 49.8576 96.0383 48.7008 97.5345 47.0036C99.0306 45.3064 99.9138 43.0927 99.9928 40.8355C100.072 38.5784 99.5041 36.1856 97.9729 34.5197C96.4142 32.824 94.3385 31.5596 92.3953 30.8941C92.3855 30.8909 92.3724 30.8877 92.3626 30.8877C92.314 30.8779 92.2644 30.8779 92.2158 30.8877C92.1832 30.8941 92.1515 30.9039 92.1215 30.9201C92.1019 30.9298 92.0824 30.9395 92.0641 30.9525C92.0445 30.9622 92.0285 30.9719 92.0119 30.9858C91.9988 30.9988 91.9858 31.0085 91.9747 31.0227C91.9518 31.0454 91.9335 31.072 91.9172 31.1002C91.8976 31.1293 91.883 31.1578 91.8715 31.1892V31.1957C91.8697 31.2022 91.8683 31.2087 91.865 31.2152C91.8618 31.2411 91.8585 31.2657 91.8585 31.291C91.8559 31.3169 91.8559 31.3412 91.8585 31.3667C91.8603 31.3797 91.8618 31.3927 91.865 31.4053C91.865 31.4085 91.865 31.415 91.865 31.4183C91.8715 31.4409 91.8813 31.4652 91.8911 31.4873C91.8976 31.5034 91.9074 31.5164 91.9172 31.5326C91.927 31.552 91.9401 31.5715 91.9544 31.5899C91.9675 31.6061 91.9805 31.6191 91.9933 31.6333C93.353 32.9077 94.4283 34.4765 95.1227 36.2027C95.73 37.7127 96.0277 39.3789 95.6066 40.8745C95.3964 41.6204 95.0073 42.3189 94.46 42.8426C93.9147 43.3644 93.1998 43.717 92.4654 43.788C91.6187 43.87 90.7237 43.5895 89.8839 43.1852C87.3614 41.9702 85.3433 39.8293 83.0653 37.9676C78.9854 34.6333 74.164 32.3458 69.2308 30.5922C62.6894 28.2669 55.758 26.8168 48.7868 27.0187L48.7891 27.016ZM41.7109 35.2697H58.6647C58.6647 40.4256 54.8704 44.6048 50.1886 44.6048C45.5068 44.6048 41.7109 40.4256 41.7109 35.2697V35.2697ZM35.8028 37.7819C36.65 46.1376 42.6699 52.62 49.9829 52.62C57.1474 52.62 63.0626 46.3953 64.0973 38.2856C68.669 39.9582 73.057 42.2679 77.1663 44.8953C77.657 45.2092 78.1504 45.5295 78.6416 45.8492C72.8048 50.7739 65.8459 54.3751 58.4404 56.2877C51.4916 58.0823 44.1774 58.3961 37.0741 57.3624C33.0331 56.7744 29.0509 55.753 25.2578 54.2456C21.3449 52.6906 17.6428 50.6136 14.2712 48.0977C21.1446 43.4173 28.3534 39.5042 35.8028 37.7819V37.7819Z" fill="black"/>
</svg>
