<svg width="100" height="100" viewBox="0 0 100 100" fill="none" xmlns="http://www.w3.org/2000/svg">
  <path
    d="M26.3061 0.00756801C24.9405 -0.0531623 23.5632 0.252066 22.3521 0.906803C22.3362 0.914741 22.3204 0.9187 22.3049 0.926638C22.2969 0.930607 22.293 0.9346 22.285 0.93857C22.2295 0.970324 22.1795 1.0088 22.1374 1.05604L22.1354 1.05804C22.1347 1.05871 22.1343 1.05909 22.1334 1.06001C22.0366 1.17234 21.9893 1.31922 22.002 1.46744C22.002 1.47141 22.002 1.47537 22.002 1.47934C22.006 1.50316 22.01 1.52458 22.0139 1.5476C22.0179 1.56348 22.0219 1.58333 22.0298 1.59881C22.0457 1.64684 22.0695 1.69289 22.0977 1.73457C22.1017 1.73854 22.1017 1.7425 22.1056 1.74647C22.1414 1.79648 22.1862 1.84054 22.237 1.87626C22.2377 1.87698 22.2381 1.87735 22.239 1.87826L22.241 1.88023C22.3462 1.95208 22.4732 1.98502 22.5998 1.97311H22.6018C22.6216 1.97113 22.6431 1.96915 22.6633 1.96121C22.6673 1.96057 22.6713 1.96019 22.6752 1.95924C24.1114 1.62264 25.7026 1.89492 26.9451 2.6918C28.1875 3.48891 29.0974 4.81912 29.3958 6.26823C29.5935 7.22833 29.5403 8.25674 29.3406 9.26232C29.1406 10.2694 28.796 11.2633 28.4342 12.2728C26.8693 16.6382 25.0729 20.971 23.8608 25.5167C22.6481 30.0645 22.0315 34.8888 22.9072 39.5795C23.9963 45.4137 27.4461 50.752 32.3102 54.1301C36.331 56.9225 41.2584 58.3287 46.1369 58.151C46.1877 61.1865 46.2917 64.2207 46.4465 67.2526C40.5806 67.5574 34.7497 68.5464 29.117 70.2178C34.8459 72.0905 40.8229 73.1889 46.8403 73.4959C47.074 76.6229 47.3489 79.7483 47.6934 82.8649C41.4039 83.0852 35.1438 84.1011 29.1088 85.8919C35.3609 87.9356 41.9079 89.0522 48.4809 89.2275C48.9675 92.8291 49.5221 96.4217 50.1565 100C50.8526 96.4254 51.4601 92.8342 51.994 89.2317C58.6006 89.0649 65.1827 87.946 71.4666 85.8919C65.4244 84.0989 59.1565 83.0795 52.8594 82.8608C53.2373 79.7438 53.5383 76.6192 53.7946 73.4897C59.7973 73.1793 65.7596 72.086 71.4748 70.2178C65.8678 68.554 60.0662 67.5687 54.2273 67.2588C54.3972 64.2291 54.508 61.1972 54.5639 58.1634C59.3079 58.2511 64.0706 56.8455 67.9804 54.1301C72.8446 50.752 76.2944 45.4137 77.3835 39.5795C78.2592 34.8888 77.6427 30.0645 76.4298 25.5167C75.2177 20.971 73.4296 16.6382 71.8647 12.2728C71.5027 11.2633 71.1563 10.2694 70.9562 9.26232C70.7565 8.25674 70.697 7.22833 70.8947 6.26823C71.1931 4.81912 72.1091 3.48891 73.3516 2.6918C74.5829 1.90175 76.1584 1.6304 77.5845 1.95306C77.8349 2.03046 78.1046 1.91736 78.2284 1.68754C78.3602 1.44462 78.2915 1.1417 78.0685 0.979634C78.0526 0.967726 78.0327 0.955838 78.0149 0.94393L78.0109 0.939963C77.995 0.932024 77.9752 0.924068 77.9577 0.91613C76.0048 -0.144627 73.6048 -0.289375 71.5386 0.529532C69.4542 1.35539 67.7976 3.1281 67.1047 5.26652C66.6821 6.57063 66.618 7.94292 66.7479 9.26271C66.8777 10.5809 67.1972 11.8542 67.5231 13.0902C68.6081 17.2047 69.9079 21.2321 70.6076 25.3545C71.3067 29.474 71.3828 33.7548 70.0661 37.6436C68.8697 41.1773 66.5086 44.3171 63.4543 46.4468C60.8504 48.2623 57.7371 49.3368 54.5721 49.5499C54.3272 35.4295 52.8561 21.3308 50.1567 7.47036C47.693 21.3674 46.3529 35.4612 46.1309 49.5746C42.8248 49.4313 39.5535 48.3411 36.8366 46.4468C33.7822 44.3171 31.4294 41.1773 30.2329 37.6436C28.9163 33.7548 28.9842 29.474 29.6833 25.3545C30.383 21.2321 31.691 17.2047 32.776 13.0902C33.1019 11.8542 33.4133 10.5809 33.543 9.26271C33.6728 7.94292 33.6168 6.57063 33.1941 5.26652C32.5011 3.1281 30.8364 1.35539 28.752 0.529532C27.9703 0.21953 27.1413 0.0479631 26.3074 0.0109295L26.3061 0.00756801Z"
    fill="black" />
</svg>