<svg width="100" height="100" viewBox="0 0 100 100" fill="none" xmlns="http://www.w3.org/2000/svg">
<path d="M74.8423 8.81145e-08C72.7126 -0.000275413 70.6558 0.645493 68.9121 1.8649C68.0529 2.46622 67.4682 3.38329 67.2868 4.41446C67.1054 5.44563 67.3419 6.50646 67.9445 7.36369C68.2426 7.78852 68.6216 8.15064 69.0599 8.42937C69.4983 8.70809 69.9874 8.89797 70.4993 8.98816C71.0112 9.07834 71.5359 9.06708 72.0435 8.95499C72.551 8.84291 73.0315 8.63219 73.4574 8.3349C73.8398 8.06727 74.3751 7.89615 74.8423 7.89619C75.3096 7.89627 75.8426 8.067 76.2251 8.3349C76.4832 8.51555 76.6883 8.73638 76.7979 8.92864C76.9032 9.11362 76.9448 9.3269 76.9452 9.4469C76.9455 9.62125 76.8117 10.0489 76.5115 10.3875C76.1821 10.7587 75.6047 11.1509 74.8648 11.4199C73.3407 11.974 71.093 11.994 68.2861 12.1075C64.4736 12.2618 60.5394 12.8035 56.712 14.103C52.8723 15.4066 49.17 17.4793 46.1587 20.5118C42.9808 23.712 40.7892 27.7908 39.8807 32.203C39.1539 35.7336 39.2768 39.391 40.1978 42.8598C38.2401 44.9323 36.4928 47.2241 35.0408 49.7623C29.3932 59.6353 29.15 70.8638 28.6319 80.8861C28.4644 84.1231 28.1852 86.9415 27.2 88.9905C26.7163 89.9966 26.0559 90.8259 25.3528 91.3512C24.6754 91.8573 23.8555 92.1223 23.2418 92.1062C22.7371 92.0943 22.1042 91.8917 21.5337 91.5206C20.9491 91.1404 20.3689 90.5569 19.8869 89.825C18.9101 88.3416 18.3095 86.2252 17.8679 83.7712C17.2678 80.4365 16.9541 77.049 16.9188 73.6612C16.9129 73.1425 16.8046 72.6301 16.6001 72.1533C16.3955 71.6764 16.0988 71.2443 15.7269 70.8819C15.3549 70.5194 14.915 70.2336 14.4323 70.0407C13.9495 69.8479 13.4334 69.7518 12.9134 69.758C11.8647 69.7699 10.8636 70.1964 10.1299 70.9439C9.39619 71.6914 8.98989 72.6988 9.00019 73.7449C9.04018 77.5738 9.39794 81.3979 10.0762 85.1669C10.5805 87.9693 11.3069 91.1787 13.2694 94.1588C14.2571 95.6587 15.5455 97.059 17.2031 98.1375C18.8748 99.2251 20.8617 99.939 23.0331 99.9963C25.7071 100.067 28.1458 99.135 30.1007 97.6743C32.0301 96.2328 33.3987 94.3601 34.3372 92.4081C36.1964 88.5411 36.3689 84.6098 36.5403 81.2943C37.0634 71.1752 37.5412 61.3244 41.9141 53.6798C43.3637 51.1456 45.2517 48.8604 47.4475 46.8263C51.4354 43.1318 56.4486 40.2776 61.775 38.3425C69.6744 35.4724 78.2641 34.4173 86.625 35.2962C87.6688 35.4064 88.7137 35.0986 89.5301 34.4405C90.3464 33.7824 90.8672 32.8279 90.9781 31.7868C91.0328 31.2707 90.9849 30.7489 90.8372 30.2512C90.6894 29.7535 90.4448 29.2898 90.1173 28.8866C89.7897 28.4833 89.3857 28.1484 88.9282 27.901C88.4708 27.6536 87.969 27.4986 87.4514 27.4449C77.8781 26.4386 68.1074 27.6377 59.0624 30.9237C54.9936 32.402 50.9959 34.3603 47.335 36.8346C47.3362 35.8094 47.4308 34.7878 47.6358 33.7925C48.2291 30.9108 49.7027 28.1537 51.7782 26.0636C53.7597 24.0681 56.3864 22.5535 59.2631 21.5768C62.1521 20.596 65.3268 20.1281 68.6034 19.9956C71.0369 19.8972 74.1758 20.0762 77.5795 18.8387C79.3034 18.2119 81.0341 17.2031 82.4419 15.6149C83.8787 13.994 84.8664 11.8714 84.8619 9.43056C84.8599 7.83279 84.4254 6.33592 83.6795 5.02745C82.9378 3.72646 81.9246 2.67074 80.7727 1.8649C79.0291 0.64506 76.9721 0.000196874 74.8425 8.81145e-08H74.8423Z" fill="black"/>
</svg>
