<svg width="100" height="100" viewBox="0 0 100 100" fill="none" xmlns="http://www.w3.org/2000/svg">
<path d="M50.0038 22C43.877 22 37.516 22.9017 31.6257 25.5584C27.3259 27.4978 23.1928 30.4426 20.4019 34.7362C19.0041 36.8866 17.9794 39.3378 17.5326 41.9687C17.0844 44.6078 17.2308 47.378 18.1095 50.0118C19.5788 54.4163 22.1258 57.1198 22.8714 59.3902C23.5681 61.5122 23.2598 64.1218 22.0867 66.0207C20.9134 67.9196 18.7211 69.3619 16.5171 69.6795C14.3131 69.9974 11.8058 69.2329 10.1475 67.742C8.48912 66.2511 7.45845 63.8307 7.53192 61.5978C7.54819 61.1021 7.46695 60.608 7.29288 60.1438C7.1188 59.6796 6.85529 59.2544 6.51739 58.8924C6.17949 58.5304 5.77382 58.2388 5.32356 58.0342C4.8733 57.8295 4.38727 57.7159 3.89324 57.6998C3.39921 57.6835 2.90682 57.765 2.44418 57.9396C1.98155 58.1143 1.55776 58.3787 1.19699 58.7177C0.836226 59.0568 0.545552 59.4638 0.341603 59.9156C0.137654 60.3674 0.0244152 60.8551 0.00834926 61.3508C-0.141742 65.9098 1.73826 70.3252 5.12407 73.3691C8.50992 76.413 13.0865 77.7997 17.5864 77.1513C22.0863 76.5029 26.0841 73.8806 28.4794 70.0037C30.8747 66.1268 31.4405 61.3606 30.0179 57.0282C28.5659 52.6059 26.0082 49.8889 25.2484 47.6112C24.8008 46.2694 24.7024 44.7283 24.9561 43.2346C25.2114 41.7327 25.8177 40.2268 26.7024 38.8657C28.4765 36.1364 31.3887 33.942 34.7106 32.4436C39.3189 30.3652 44.6201 29.5568 50.0038 29.5568C55.3876 29.5568 60.6811 30.3652 65.2894 32.4436C68.6114 33.942 71.5235 36.1364 73.2976 38.8657C74.1823 40.2268 74.7966 41.7327 75.0516 43.2346C75.3053 44.7283 75.2068 46.2694 74.7593 47.6112C73.9995 49.8889 71.4341 52.6059 69.9821 57.0282C68.5595 61.3606 69.1253 66.1268 71.5207 70.0037C73.916 73.8806 77.9214 76.5029 82.4213 77.1513C86.9212 77.7997 91.4978 76.413 94.8836 73.3691C98.2694 70.3252 100.142 65.9098 99.9916 61.3508C99.9756 60.8551 99.8623 60.3674 99.6584 59.9157C99.4544 59.4639 99.1638 59.0568 98.803 58.7178C98.4422 58.3787 98.0185 58.1143 97.5558 57.9396C97.0932 57.765 96.6008 57.6835 96.1068 57.6998C95.1104 57.7343 94.1684 58.1642 93.4876 58.8951C92.8068 59.6259 92.4429 60.598 92.4758 61.5978C92.5494 63.8307 91.5186 66.2511 89.8602 67.742C88.2019 69.2329 85.6946 69.9971 83.4906 69.6795C81.2866 69.3616 79.0865 67.9196 77.9134 66.0207C76.7401 64.1218 76.4319 61.5122 77.1287 59.3902C77.8742 57.1198 80.4212 54.4163 81.8905 50.0118C82.7691 47.378 82.9157 44.6078 82.4675 41.9687C82.0207 39.3378 80.9959 36.8866 79.5981 34.7362C76.8072 30.4426 72.6741 27.4978 68.3743 25.5584C62.484 22.9017 56.1308 22 50.0039 22H50.0038Z" fill="black"/>
</svg>
