<svg width="100" height="100" viewBox="0 0 100 100" fill="none" xmlns="http://www.w3.org/2000/svg">
<path d="M79.4369 2C47.6468 2.02797 16.7555 2.06387 6.84884 2.06527L0 11.4088C5.51248 11.4042 11.6245 11.4091 16.567 11.4088L16.6968 60.8821L11.4484 68.9907L11.46 69C11.3361 69.1953 11.2093 69.3827 11.0875 69.5849C10.0482 71.3136 9.28126 72.9629 8.82136 74.6724C8.59136 75.5271 8.40248 76.3771 8.47769 77.5751C8.53652 78.5114 8.85825 80.0693 10.1286 81.3139L26.018 98C26.0717 68.6094 25.96 37.8016 25.8905 11.4106H54.9897L55.1748 85.3594L48.6792 93.1369C56.1758 93.1415 64.1667 93.1322 71.0569 93.1369C68.9607 90.6184 66.8644 87.8777 64.768 85.3594L64.5901 11.4203C70.2886 11.4226 74.8846 11.4109 80.5034 11.4109C81.306 11.4865 81.8294 11.6277 82.0077 11.7322C82.1147 11.7946 82.2368 11.9298 82.2793 12.0151C82.3197 12.0967 82.3425 12.2538 82.3346 12.3149C82.3253 12.3862 82.2534 12.6426 82.0438 12.9819C81.8268 13.3334 81.4583 13.7865 80.9432 14.3257C79.907 15.4105 78.1641 16.8097 76.721 19.2489C74.8873 22.3482 74.4241 26.0276 75.4305 29.4891C76.4369 32.9506 78.8028 35.8014 82.0078 37.4189C85.2129 39.0363 88.8913 39.242 92.2522 37.9844C95.6131 36.7269 98.2696 34.1542 99.6442 30.8232C100.628 28.4366 99.5014 25.6997 97.1281 24.711C94.7584 23.7219 92.0399 24.8499 91.0531 27.2317C90.7056 28.0736 89.8599 28.8982 89.0105 29.216C88.161 29.534 86.9848 29.4678 86.1748 29.0589C85.3647 28.6501 84.6124 27.7416 84.358 26.8668C84.1036 25.9919 84.2501 24.8199 84.7137 24.0366C85.1179 23.3535 86.1813 22.3454 87.6479 20.8101C88.3842 20.0394 89.2091 19.1163 89.9452 17.9244C90.6888 16.7204 91.3274 15.2605 91.5529 13.5305C91.812 11.5436 91.4715 9.57605 90.5893 7.81224C89.7089 6.05212 88.3606 4.62603 86.6939 3.64795C85.1138 2.72074 83.5675 2.34475 82.152 2.16881C81.2524 2.03315 80.265 2.02056 79.4365 2.00238L79.4369 2Z" fill="black"/>
</svg>
